<?xml version="1.0" ?><svg viewBox="0 0 64 64" xmlns="http://www.w3.org/2000/svg"><g id="a"/><g id="b"/><g id="c"/><g id="d"/><g id="e"/><g id="f"/><g id="g"/><g id="h"/><g id="i"/><g id="j"/><g id="k"/><g id="l"/><g id="m"/><g id="n"/><g id="o"/><g id="p"/><g id="q"/><g id="r"/><g id="s"/><g id="t"/><g id="u"/><g id="v"/><g id="w"/><g id="x"><path d="M17.58,40.17l-1.25,.34c-2.64,.71-5.69-.78-6.04-3.49l-.75-5.83,7.46-3.53s4.75,9.94,.58,12.51Z" fill="#e4ecf0" fill-rule="evenodd"/><polygon fill="#d9e3e9" fill-rule="evenodd" points="35.37 47.08 35.37 38.91 43.95 36.27 43.95 42.78 35.37 47.08"/><path d="M54.71,51.37h-15.05c-2.38,0-4.29-1.91-4.29-4.29s1.91-4.29,4.29-4.29h10.76l4.29,8.58Z" fill="#e4ecf0" fill-rule="evenodd"/><path d="M16.11,34.69l1.55,5.79c.44,1.64,2.11,2.61,3.76,2.17l21.27-5.7c1.64-.44,2.61-2.11,2.17-3.76l-1.51-5.64-6.48-3.43-20.75,10.56Z" fill="#f0f3f5" fill-rule="evenodd"/><path d="M59,47.08c0,2.38-1.91,4.29-4.29,4.29s-4.29-1.91-4.29-4.29v-6.92c0-2.38,1.91-4.29,4.29-4.29h2.36c1.06,0,1.93,.86,1.93,1.93v9.29Z" fill="#f0f3f5" fill-rule="evenodd"/><path d="M7.11,21.38L39.38,12.73c1.6-.43,3.24,.52,3.67,2.12l2.42,9.03c.43,1.6-.52,3.24-2.12,3.67l-25.83,6.92c-2.79,.75-5.76-.29-7.48-2.61l-4.48-6.04c-1.2-1.61-.39-3.93,1.55-4.45Z" fill="#8996a8" fill-rule="evenodd"/><path d="M54.71,44.96c-.55,0-1,.45-1,1v1.12c0,.55,.45,1,1,1s1-.45,1-1v-1.12c0-.55-.45-1-1-1Z" fill="#8996a8" fill-rule="evenodd"/><path d="M39.7,46.08c-.55,0-1,.45-1,1s.45,1,1,1h1.12c.55,0,1-.45,1-1s-.45-1-1-1h-1.12Z" fill="#8996a8" fill-rule="evenodd"/><path d="M28.81,19.26c-.1,.17-.15,.36-.15,.55,0,.39,.21,.76,.55,.95,.52,.3,1.2,.12,1.5-.4,.1-.17,.15-.36,.15-.55,0-.39-.21-.76-.55-.95-.17-.1-.36-.15-.55-.15-.39,0-.76,.21-.95,.55Z" fill="#f0f3f5" fill-rule="evenodd"/><path d="M33.23,18.08c-.1,.17-.15,.36-.15,.55,0,.39,.21,.76,.55,.95,.17,.1,.36,.15,.55,.15,.39,0,.76-.21,.95-.55,.1-.17,.15-.36,.15-.55,0-.39-.21-.76-.55-.95-.17-.1-.36-.15-.55-.15-.39,0-.76,.21-.95,.55Z" fill="#f0f3f5" fill-rule="evenodd"/><path d="M37.64,16.9c-.3,.52-.12,1.2,.4,1.5,.17,.1,.36,.15,.55,.15,.39,0,.76-.21,.95-.55,.1-.17,.15-.36,.15-.55,0-.39-.21-.76-.55-.95-.17-.1-.36-.15-.55-.15-.39,0-.76,.21-.95,.55Z" fill="#f0f3f5" fill-rule="evenodd"/></g><g id="y"/><g id="a`"/><g id="aa"/><g id="ab"/><g id="ac"/><g id="ad"/><g id="ae"/><g id="af"/><g id="ag"/><g id="ah"/><g id="ai"/><g id="aj"/><g id="ak"/><g id="al"/><g id="am"/><g id="an"/><g id="ao"/><g id="ap"/><g id="aq"/><g id="ar"/><g id="as"/><g id="at"/><g id="au"/><g id="av"/><g id="aw"/><g id="ax"/></svg>