<?xml version="1.0" ?><!DOCTYPE svg  PUBLIC '-//W3C//DTD SVG 1.1//EN'  'http://www.w3.org/Graphics/SVG/1.1/DTD/svg11.dtd'><svg height="100%" style="fill-rule:evenodd;clip-rule:evenodd;stroke-linejoin:round;stroke-miterlimit:2;" version="1.1" viewBox="0 0 128 128" width="100%" xml:space="preserve" xmlns="http://www.w3.org/2000/svg" xmlns:serif="http://www.serif.com/" xmlns:xlink="http://www.w3.org/1999/xlink"><g id="Icon"/><path d="M90,14c-0,-2.209 -1.791,-4 -4,-4c-11.491,0 -44.509,-0 -56,0c-2.209,-0 -4,1.791 -4,4c0,16.982 -0,83.018 0,100c0,2.209 1.791,4 4,4c11.491,0 44.509,0 56,0c2.209,0 4,-1.791 4,-4c-0,-16.982 0,-83.018 0,-100Z" style="fill:#424243;"/><path d="M88,78c-3.297,-0 -5.976,2.709 -6,6l-0,11c-0,1.104 -0.896,2 -2,2c-0,1.104 0.896,2 2,2c1.104,0 2,-0.896 2,-2l0,-11.044c0.019,-2.591 1.684,-4.794 4,-5.614l-0,31.658c-0,1.195 -0.524,2.267 -1.354,3l-8.646,-0c-0.573,0 -1.133,-0.123 -1.646,-0.354c0.197,0.436 0.473,0.837 0.818,1.182c0.059,0.06 0.12,0.117 0.182,0.172l-49.354,0c-0.587,0 -1.144,-0.126 -1.646,-0.354c0.627,1.388 2.024,2.354 3.646,2.354c11.491,0 44.509,0 56,0c2.209,0 4,-1.791 4,-4c-0,-16.982 0,-83.018 0,-100c-0,-1.622 -0.966,-3.019 -2.354,-3.646c0.228,0.502 0.354,1.059 0.354,1.646l-0,66Zm-58.508,36.313c-0.307,-0.351 -0.492,-0.81 -0.492,-1.313c0,-12.97 -0,-85.03 0,-98c0,-1.105 0.895,-2 2,-2c8.926,0 45.074,0 54,-0c0.364,0 0.706,0.097 1,0.268l-0,-0c-0.514,-0.573 -1.409,-1.268 -2.514,-1.268c-8.926,-0 -44.56,-0 -53.486,-0c-1.105,0 -2,0.895 -2,2c-0,12.97 -0,85.03 -0,98c0,1.105 0.492,1.68 1.491,2.313l0.001,0Z" style="fill:#202020;"/><path d="M87,15c-0,-1.105 -0.895,-2 -2,-2c-8.926,0 -45.074,0 -54,0c-1.105,0 -2,0.895 -2,2c-0,12.97 0,85.03 0,98c0,1.105 0.895,2 2,2c8.926,0 45.074,-0 54,-0c1.105,-0 2,-0.895 2,-2c0,-12.97 0,-85.03 0,-98Z" style="fill:#767576;"/><path d="M31,115l0,-98c0,-1.105 0.895,-2 2,-2l54,-0c-0,-1.105 -0.895,-2 -2,-2c-8.926,0 -45.074,0 -54,0c-1.105,0 -2,0.895 -2,2c-0,12.97 0,85.03 0,98c0,1.105 0.895,2 2,2l0,0Zm56,-36.933c-3.159,0.436 -4.979,2.944 -5,5.933l-0,11c-0,1.104 -0.896,2 -2,2c-0,1.104 0.896,2 2,2c1.104,0 2,-0.896 2,-2l0,-11.044c0.016,-2.2 1.219,-4.121 3,-5.152l-0,-2.737Zm-3.354,-34.713c0.231,0.513 0.354,1.073 0.354,1.646l0,18c0,2.209 -1.791,4 -4,4l0,0c-0.573,0 -1.133,-0.123 -1.646,-0.354c0.197,0.436 0.473,0.837 0.818,1.182c0.75,0.751 1.767,1.172 2.828,1.172l0,0c2.209,-0 4,-1.791 4,-4l0,-18c0,-1.061 -0.421,-2.078 -1.172,-2.828c-0.345,-0.345 -0.746,-0.621 -1.182,-0.818Z" style="fill:#616262;"/><path d="M80,84c-0,-0.53 -0.211,-1.039 -0.586,-1.414c-0.375,-0.375 -0.884,-0.586 -1.414,-0.586c-3.463,0 -10.537,0 -14,0c-0.53,-0 -1.039,0.211 -1.414,0.586c-0.375,0.375 -0.586,0.884 -0.586,1.414c0,4.843 0,17.157 0,22c0,0.53 0.211,1.039 0.586,1.414c0.375,0.375 0.884,0.586 1.414,0.586c3.463,-0 10.537,-0 14,-0c0.53,0 1.039,-0.211 1.414,-0.586c0.375,-0.375 0.586,-0.884 0.586,-1.414c-0,-4.843 -0,-17.157 -0,-22Zm-26,-0c-0,-0.53 -0.211,-1.039 -0.586,-1.414c-0.375,-0.375 -0.884,-0.586 -1.414,-0.586c-3.463,0 -10.537,0 -14,0c-0.53,-0 -1.039,0.211 -1.414,0.586c-0.375,0.375 -0.586,0.884 -0.586,1.414c-0,4.843 -0,17.157 -0,22c0,0.53 0.211,1.039 0.586,1.414c0.375,0.375 0.884,0.586 1.414,0.586c3.463,-0 10.537,-0 14,-0c0.53,0 1.039,-0.211 1.414,-0.586c0.375,-0.375 0.586,-0.884 0.586,-1.414c-0,-4.843 -0,-17.157 -0,-22Zm26,-18c-0,-1.105 -0.895,-2 -2,-2c-7.329,0 -32.671,0 -40,0c-1.105,0 -2,0.895 -2,2c0,2.22 0,5.78 0,8c0,1.105 0.895,2 2,2c7.329,0 32.671,0 40,0c1.105,-0 2,-0.895 2,-2c0,-2.22 0,-5.78 0,-8Zm0,-44c0,-1.105 -0.895,-2 -2,-2c-7.329,0 -32.671,0 -40,0c-1.105,0 -2,0.895 -2,2c0,6.568 0,27.432 0,34c-0,1.105 0.895,2 2,2c7.329,0 32.671,0 40,0c1.105,-0 2,-0.895 2,-2c0,-6.568 0,-27.432 0,-34Z" style="fill:#e0e1e0;"/><path d="M78,82l0,22c-0,0.53 -0.211,1.039 -0.586,1.414c-0.375,0.375 -0.884,0.586 -1.414,0.586l-14,0c0,0.53 0.211,1.039 0.586,1.414c0.375,0.375 0.884,0.586 1.414,0.586c3.463,-0 10.537,-0 14,-0c0.53,0 1.039,-0.211 1.414,-0.586c0.375,-0.375 0.586,-0.884 0.586,-1.414c-0,-4.843 -0,-17.157 -0,-22c-0,-0.53 -0.211,-1.039 -0.586,-1.414c-0.375,-0.375 -0.884,-0.586 -1.414,-0.586Zm-26,0l0,22c-0,0.53 -0.211,1.039 -0.586,1.414c-0.375,0.375 -0.884,0.586 -1.414,0.586l-14,0c0,0.53 0.211,1.039 0.586,1.414c0.375,0.375 0.884,0.586 1.414,0.586c3.463,-0 10.537,-0 14,-0c0.53,0 1.039,-0.211 1.414,-0.586c0.375,-0.375 0.586,-0.884 0.586,-1.414c-0,-4.843 -0,-17.157 -0,-22c-0,-0.53 -0.211,-1.039 -0.586,-1.414c-0.375,-0.375 -0.884,-0.586 -1.414,-0.586Zm26,-18l0,8c-0,1.105 -0.895,2 -2,2l-40,0c0,1.105 0.895,2 2,2c7.329,0 32.671,0 40,0c1.105,-0 2,-0.895 2,-2c0,-2.22 0,-5.78 0,-8c-0,-1.105 -0.895,-2 -2,-2l0,0Zm-0.872,-8.348l-8.128,-0.581c0.001,0.42 0.262,0.783 0.635,0.929l-33.635,-0c-0,1.105 0.895,2 2,2c7.329,0 32.671,0 40,0c1.105,-0 2,-0.895 2,-2c0,-6.568 0,-27.432 0,-34c0,-1.105 -0.895,-2 -2,-2l-0,15.744c-0.086,-0.151 -0.194,-0.293 -0.322,-0.421c-0.527,-0.527 -1.072,-1.026 -1.634,-1.496c0.385,0.751 0.262,1.696 -0.366,2.324c-0.781,0.781 -2.048,0.781 -2.829,0c-8.195,-8.195 -21.503,-8.195 -29.698,0c-0.39,0.39 -0.902,0.585 -1.414,0.586c-0,0.512 0.195,1.024 0.585,1.414c0.781,0.781 2.048,0.781 2.829,0c8.195,-8.195 21.503,-8.195 29.698,0c0.781,0.781 2.048,0.781 2.829,0c0.128,-0.129 0.236,-0.271 0.322,-0.421l0,16.27c0,0.686 -0.346,1.292 -0.872,1.652Zm-17.128,-4.651c0.512,-0 1.024,0.195 1.414,0.585c0.781,0.781 0.781,2.048 0,2.829c-0.78,0.78 -2.048,0.78 -2.828,-0c-0.391,-0.391 -0.586,-0.903 -0.586,-1.415c0.512,-0 1.024,-0.195 1.414,-0.585c0.39,-0.391 0.586,-0.902 0.586,-1.414Zm6.238,-7.062c0.264,0.71 0.111,1.541 -0.46,2.112c-0.78,0.78 -2.048,0.78 -2.828,-0c-2.732,-2.732 -7.168,-2.732 -9.9,-0c-0.39,0.39 -0.902,0.585 -1.414,0.585c0,0.512 0.195,1.024 0.586,1.415c0.78,0.78 2.048,0.78 2.828,-0c2.732,-2.732 7.168,-2.732 9.9,-0c0.78,0.78 2.048,0.78 2.828,-0c0.781,-0.781 0.781,-2.048 0,-2.829c-0.482,-0.482 -0.998,-0.91 -1.54,-1.283Zm-19.551,-2.253c-0,0.512 0.195,1.025 0.585,1.415c0.781,0.78 2.048,0.78 2.829,-0c5.463,-5.464 14.335,-5.464 19.798,-0c0.781,0.78 2.048,0.78 2.829,-0c0.78,-0.781 0.78,-2.048 -0,-2.829c-0.51,-0.51 -1.043,-0.982 -1.596,-1.418c0.338,0.738 0.203,1.64 -0.404,2.247c-0.781,0.78 -2.048,0.78 -2.829,-0c-5.463,-5.464 -14.335,-5.464 -19.798,-0c-0.391,0.39 -0.903,0.585 -1.414,0.585Z" style="fill:#bdbdbd;"/><path d="M80,68.464l0,-1.464c-0.573,0 -1.133,-0.123 -1.646,-0.354c0.197,0.436 0.473,0.837 0.818,1.182c0.249,0.25 0.528,0.463 0.828,0.636Z" style="fill:#767576;"/><path d="M84,45c0,-1.061 -0.421,-2.078 -1.172,-2.828c-0.75,-0.751 -1.767,-1.172 -2.828,-1.172c-2.209,0 -4,1.791 -4,4l0,18c-0,1.061 0.421,2.078 1.172,2.828c0.75,0.751 1.767,1.172 2.828,1.172c2.209,-0 4,-1.791 4,-4l0,-18Z" style="fill:#424243;"/><path d="M82,53.349c-0.047,-0.024 -0.095,-0.047 -0.144,-0.067c0.094,0.225 0.144,0.469 0.144,0.718l0,0c0,0.517 -0.215,1.011 -0.593,1.363c-0.378,0.352 -0.886,0.531 -1.402,0.495l-4.005,-0.287l0,0.929l5.005,0.358c0.348,0.024 0.692,-0.049 0.995,-0.207l0,4.349c0,2.209 -1.791,4 -4,4l0,0c-0.573,0 -1.133,-0.123 -1.646,-0.354c0.197,0.436 0.473,0.837 0.818,1.182c0.75,0.751 1.767,1.172 2.828,1.172l0,0c2.209,-0 4,-1.791 4,-4l0,-18c0,-1.061 -0.421,-2.078 -1.172,-2.828c-0.345,-0.345 -0.746,-0.621 -1.182,-0.818c0.231,0.513 0.354,1.073 0.354,1.646l0,10.349Z" style="fill:#202020;"/><path d="M82,54c0,-0.517 -0.215,-1.011 -0.593,-1.363c-0.378,-0.352 -0.886,-0.531 -1.402,-0.495c-3.069,0.22 -8.831,0.631 -11.076,0.792c-0.524,0.037 -0.929,0.472 -0.929,0.997c-0,0.046 -0,0.092 -0,0.138c-0,0.525 0.405,0.96 0.929,0.997c2.245,0.161 8.007,0.572 11.076,0.792c0.516,0.036 1.024,-0.143 1.402,-0.495c0.378,-0.352 0.593,-0.846 0.593,-1.363c-0,0 -0,-0 -0,-0Z" style="fill:#767576;"/><path d="M80.856,52.282c0.094,0.225 0.144,0.469 0.144,0.718c-0,-0 -0,0 0,0c0,0.517 -0.215,1.011 -0.593,1.363c-0.378,0.352 -0.886,0.531 -1.402,0.495l-11.005,-0.787c0.001,0.524 0.406,0.958 0.929,0.995c2.245,0.161 8.007,0.572 11.076,0.792c0.516,0.036 1.024,-0.143 1.402,-0.495c0.378,-0.352 0.593,-0.846 0.593,-1.363c-0,0 -0,-0 -0,-0c0,-0.517 -0.215,-1.011 -0.593,-1.363c-0.163,-0.152 -0.35,-0.271 -0.551,-0.355Z" style="fill:#616262;"/><path d="M78,83.936l-0,11.064c-0,1.104 0.896,2 2,2c1.104,0 2,-0.896 2,-2l0,-11.044c0.024,-3.291 2.703,-5.956 6,-5.956c3.311,-0 6,2.689 6,6l-0,11c-0,1.104 0.896,2 2,2c1.104,0 2,-0.896 2,-2l-0,-11c-0,-5.519 -4.481,-10 -10,-10c-5.498,-0 -9.965,4.446 -10,9.936Z" style="fill:#f6f8f9;"/><path d="M78,95c-0,1.104 0.896,2 2,2c1.104,0 2,-0.896 2,-2l0,-11.044c0.024,-3.291 2.703,-5.956 6,-5.956c1.144,-0 3.292,0.471 4.471,2c-0.755,-2.275 -3.303,-4 -5.471,-4c-3.772,-0 -6.976,3.709 -7,7l-0,10c-0,1.104 -0.896,2 -2,2Zm15.999,-18.999c1.256,1.671 2.001,3.749 2.001,5.999l-0,11c-0,1.104 -0.896,2 -2,2c-0,1.104 0.896,2 2,2c1.104,0 2,-0.896 2,-2l-0,-11c-0,-3.269 -1.572,-6.174 -4.001,-7.999Z" style="fill:#e0e1e0;"/><path d="M102,95c0,-1.061 -0.421,-2.078 -1.172,-2.828c-0.75,-0.751 -1.767,-1.172 -2.828,-1.172c-5.322,-0 -14.678,-0 -20,-0c-1.061,-0 -2.078,0.421 -2.828,1.172c-0.751,0.75 -1.172,1.767 -1.172,2.828c-0,4.439 -0,11.561 -0,16c-0,1.061 0.421,2.078 1.172,2.828c0.75,0.751 1.767,1.172 2.828,1.172c5.322,-0 14.678,-0 20,-0c1.061,0 2.078,-0.421 2.828,-1.172c0.751,-0.75 1.172,-1.767 1.172,-2.828c-0,-4.439 -0,-11.561 -0,-16Z" style="fill:#fcd935;"/><path d="M99.646,91.354c0.231,0.513 0.354,1.073 0.354,1.646c-0,4.439 -0,11.561 -0,16c0,1.061 -0.421,2.078 -1.172,2.828c-0.75,0.751 -1.767,1.172 -2.828,1.172c-5.322,-0 -14.678,-0 -20,-0c-0.573,0 -1.133,-0.123 -1.646,-0.354c0.197,0.436 0.473,0.837 0.818,1.182c0.75,0.751 1.767,1.172 2.828,1.172c5.322,-0 14.678,-0 20,-0c1.061,0 2.078,-0.421 2.828,-1.172c0.751,-0.75 1.172,-1.767 1.172,-2.828c-0,-4.439 -0,-11.561 -0,-16c0,-1.061 -0.421,-2.078 -1.172,-2.828c-0.345,-0.345 -0.746,-0.621 -1.182,-0.818Zm-13.646,16.646l-1,-1l-0,-4.765c-0.614,-0.549 -1,-1.347 -1,-2.235c-0,-1.656 1.344,-3 3,-3c1.565,-0 2.473,0.902 3,1.765c-0.684,-0.617 -1.428,-0.765 -2,-0.765c-1.656,-0 -3,1.344 -3,3c-0,0.888 0.386,1.686 1,2.235l-0,4.765Z" style="fill:#fbc02a;"/><path d="M86,103.235c-0.614,-0.549 -1,-1.347 -1,-2.235c-0,-1.656 1.344,-3 3,-3c1.656,-0 3,1.344 3,3c-0,0.888 -0.386,1.686 -1,2.235l-0,4.765l-4,-0l-0,-4.765Z" style="fill:#424243;"/><path d="M87,108l-1,-0l-0,-4.765c-0.614,-0.549 -1,-1.347 -1,-2.235c-0,-1.656 1.344,-3 3,-3c1.084,-0 2.034,0.576 2.562,1.438c-0.455,-0.278 -0.99,-0.438 -1.562,-0.438c-1.656,-0 -3,1.344 -3,3c-0,0.888 0.386,1.686 1,2.235l-0,3.765Z" style="fill:#202020;"/><path d="M56.586,49.586c0.78,-0.78 2.048,-0.78 2.828,0c0.781,0.781 0.781,2.048 0,2.829c-0.78,0.78 -2.048,0.78 -2.828,-0c-0.781,-0.781 -0.781,-2.048 -0,-2.829Zm-3.536,-3.535c2.732,-2.732 7.168,-2.732 9.9,-0c0.78,0.78 2.048,0.78 2.828,-0c0.781,-0.781 0.781,-2.048 0,-2.829c-4.293,-4.293 -11.263,-4.293 -15.556,0c-0.781,0.781 -0.781,2.048 -0,2.829c0.78,0.78 2.048,0.78 2.828,-0Zm-4.949,-4.95c5.463,-5.464 14.335,-5.464 19.798,-0c0.781,0.78 2.048,0.78 2.829,-0c0.78,-0.781 0.78,-2.048 -0,-2.829c-7.025,-7.024 -18.431,-7.024 -25.456,0c-0.78,0.781 -0.78,2.048 0,2.829c0.781,0.78 2.048,0.78 2.829,-0Zm-4.95,-4.95c8.195,-8.195 21.503,-8.195 29.698,0c0.781,0.781 2.048,0.781 2.829,0c0.78,-0.78 0.78,-2.048 -0,-2.828c-9.757,-9.757 -25.599,-9.757 -35.356,-0c-0.78,0.78 -0.78,2.048 0,2.828c0.781,0.781 2.048,0.781 2.829,0Z" style="fill:#41b3e6;"/><path d="M58,49.001c0.512,-0 1.024,0.195 1.414,0.585c0.781,0.781 0.781,2.048 0,2.829c-0.78,0.78 -2.048,0.78 -2.828,-0c-0.391,-0.391 -0.586,-0.903 -0.586,-1.415c0.512,-0 1.024,-0.195 1.414,-0.585c0.39,-0.391 0.586,-0.902 0.586,-1.414Zm6.238,-7.062c0.264,0.71 0.111,1.541 -0.46,2.112c-0.78,0.78 -2.048,0.78 -2.828,-0c-2.732,-2.732 -7.168,-2.732 -9.9,-0c-0.39,0.39 -0.902,0.585 -1.414,0.585c0,0.512 0.195,1.024 0.586,1.415c0.78,0.78 2.048,0.78 2.828,-0c2.732,-2.732 7.168,-2.732 9.9,-0c0.78,0.78 2.048,0.78 2.828,-0c0.781,-0.781 0.781,-2.048 0,-2.829c-0.482,-0.482 -0.998,-0.91 -1.54,-1.283Zm-19.551,-2.253c-0,0.512 0.195,1.025 0.585,1.415c0.781,0.78 2.048,0.78 2.829,-0c5.463,-5.464 14.335,-5.464 19.798,-0c0.781,0.78 2.048,0.78 2.829,-0c0.78,-0.781 0.78,-2.048 -0,-2.829c-0.51,-0.51 -1.043,-0.982 -1.596,-1.418c0.338,0.738 0.203,1.64 -0.404,2.247c-0.781,0.78 -2.048,0.78 -2.829,-0c-5.463,-5.464 -14.335,-5.464 -19.798,-0c-0.391,0.39 -0.903,0.585 -1.414,0.585Zm-4.95,-4.949c-0,0.512 0.195,1.024 0.585,1.414c0.781,0.781 2.048,0.781 2.829,0c8.195,-8.195 21.503,-8.195 29.698,0c0.781,0.781 2.048,0.781 2.829,0c0.78,-0.78 0.78,-2.048 -0,-2.828c-0.527,-0.527 -1.072,-1.026 -1.634,-1.496c0.385,0.751 0.262,1.696 -0.366,2.324c-0.781,0.781 -2.048,0.781 -2.829,0c-8.195,-8.195 -21.503,-8.195 -29.698,0c-0.39,0.39 -0.902,0.585 -1.414,0.586Z" style="fill:#2898d4;"/></svg>