<svg viewBox="0 0 32 32" xmlns="http://www.w3.org/2000/svg"><path d="M6.508 10.9H2.244v15.119h4.16l.104.156.364.572h1.573V12.616a10.841 10.841 0 0 0-1.938 2.535ZM4.376 6.311 1.957 9.6h4.836L4.376 6.311zM27.555 6.311 25.137 9.6h4.835l-2.417-3.289zM9.745 13.188v13.558h2.158V10.341a10.843 10.843 0 0 0-2.159 1.182ZM25.422 26.174v-.156h4.251V10.9h-4.25v4.303a10.355 10.355 0 0 0-1.833-2.457v14.001h1.469ZM20.131 11.835v14.911h2.159V11.615a10.636 10.636 0 0 0-2.158-1.223ZM13.203 11.264v15.483h2.17V9.573a9.334 9.334 0 0 0-2.17.338ZM16.674 10.886v15.86h2.158V9.938a10.542 10.542 0 0 0-2.158-.365ZM30.414 27.319h-5.719l-1.157 1.78h8.021l-1.145-1.78zM1.516 27.319l-1.144 1.78H8.38l-1.145-1.78H1.516z" fill="#57787d" class="fill-444444"></path></svg>